<?xml version="1.0" encoding="UTF-8" standalone="no"?>
<!-- Created with Inkscape (http://www.inkscape.org/) -->

<svg
   width="210mm"
   height="297mm"
   viewBox="0 0 210 297"
   version="1.1"
   id="svg5"
   sodipodi:docname="graph.svg"
   inkscape:version="1.1.1 (3bf5ae0d25, 2021-09-20, custom)"
   xmlns:inkscape="http://www.inkscape.org/namespaces/inkscape"
   xmlns:sodipodi="http://sodipodi.sourceforge.net/DTD/sodipodi-0.dtd"
   xmlns:xlink="http://www.w3.org/1999/xlink"
   xmlns="http://www.w3.org/2000/svg"
   xmlns:svg="http://www.w3.org/2000/svg">
  <sodipodi:namedview
     id="namedview7"
     pagecolor="#ffffff"
     bordercolor="#666666"
     borderopacity="1.0"
     inkscape:pageshadow="2"
     inkscape:pageopacity="0.0"
     inkscape:pagecheckerboard="0"
     inkscape:document-units="mm"
     showgrid="false"
     inkscape:zoom="0.52473017"
     inkscape:cx="456.42506"
     inkscape:cy="590.77983"
     inkscape:window-width="1920"
     inkscape:window-height="1011"
     inkscape:window-x="0"
     inkscape:window-y="32"
     inkscape:window-maximized="1"
     inkscape:current-layer="layer1" />
  <defs
     id="defs2">
    <inkscape:path-effect
       effect="bspline"
       id="path-effect2351"
       is_visible="true"
       lpeversion="1"
       weight="33.333333"
       steps="2"
       helper_size="0"
       apply_no_weight="true"
       apply_with_weight="true"
       only_selected="false" />
    <marker
       style="overflow:visible;"
       id="Arrow1Lend"
       refX="0.0"
       refY="0.0"
       orient="auto"
       inkscape:stockid="Arrow1Lend"
       inkscape:isstock="true">
      <path
         transform="scale(0.8) rotate(180) translate(12.5,0)"
         style="fill-rule:evenodd;fill:context-stroke;stroke:context-stroke;stroke-width:1.0pt;"
         d="M 0.0,0.0 L 5.0,-5.0 L -12.5,0.0 L 5.0,5.0 L 0.0,0.0 z "
         id="path2075" />
    </marker>
    <marker
       style="overflow:visible;"
       id="Arrow1Mend"
       refX="0.0"
       refY="0.0"
       orient="auto"
       inkscape:stockid="Arrow1Mend"
       inkscape:isstock="true">
      <path
         transform="scale(0.4) rotate(180) translate(10,0)"
         style="fill-rule:evenodd;fill:context-stroke;stroke:context-stroke;stroke-width:1.0pt;"
         d="M 0.0,0.0 L 5.0,-5.0 L -12.5,0.0 L 5.0,5.0 L 0.0,0.0 z "
         id="path2081" />
    </marker>
    <inkscape:path-effect
       effect="bspline"
       id="path-effect2070"
       is_visible="true"
       lpeversion="1"
       weight="33.333333"
       steps="2"
       helper_size="0"
       apply_no_weight="true"
       apply_with_weight="true"
       only_selected="false" />
    <inkscape:path-effect
       effect="bspline"
       id="path-effect1152"
       is_visible="true"
       lpeversion="1"
       weight="33.333333"
       steps="2"
       helper_size="0"
       apply_no_weight="true"
       apply_with_weight="true"
       only_selected="false" />
    <inkscape:path-effect
       effect="bspline"
       id="path-effect1148"
       is_visible="true"
       lpeversion="1"
       weight="33.333333"
       steps="2"
       helper_size="0"
       apply_no_weight="true"
       apply_with_weight="true"
       only_selected="false" />
    <inkscape:path-effect
       effect="bspline"
       id="path-effect1144"
       is_visible="true"
       lpeversion="1"
       weight="33.333333"
       steps="2"
       helper_size="0"
       apply_no_weight="true"
       apply_with_weight="true"
       only_selected="false" />
    <inkscape:path-effect
       effect="bspline"
       id="path-effect1140"
       is_visible="true"
       lpeversion="1"
       weight="33.333333"
       steps="2"
       helper_size="0"
       apply_no_weight="true"
       apply_with_weight="true"
       only_selected="false" />
    <inkscape:path-effect
       effect="bspline"
       id="path-effect1136"
       is_visible="true"
       lpeversion="1"
       weight="33.333333"
       steps="2"
       helper_size="0"
       apply_no_weight="true"
       apply_with_weight="true"
       only_selected="false" />
    <inkscape:path-effect
       effect="bspline"
       id="path-effect1132"
       is_visible="true"
       lpeversion="1"
       weight="33.333333"
       steps="2"
       helper_size="0"
       apply_no_weight="true"
       apply_with_weight="true"
       only_selected="false" />
    <inkscape:path-effect
       effect="bspline"
       id="path-effect1128"
       is_visible="true"
       lpeversion="1"
       weight="33.333333"
       steps="2"
       helper_size="0"
       apply_no_weight="true"
       apply_with_weight="true"
       only_selected="false" />
    <g
       id="g5018">
      <symbol
         overflow="visible"
         id="symbol9336">
        <path
           style="stroke:none;"
           d=""
           id="path9190" />
      </symbol>
      <symbol
         overflow="visible"
         id="symbol7944">
        <path
           style="stroke:none;"
           d="M 2.9375 -6.375 C 2.9375 -6.625 2.9375 -6.640625 2.703125 -6.640625 C 2.078125 -6 1.203125 -6 0.890625 -6 L 0.890625 -5.6875 C 1.09375 -5.6875 1.671875 -5.6875 2.1875 -5.953125 L 2.1875 -0.78125 C 2.1875 -0.421875 2.15625 -0.3125 1.265625 -0.3125 L 0.953125 -0.3125 L 0.953125 0 C 1.296875 -0.03125 2.15625 -0.03125 2.5625 -0.03125 C 2.953125 -0.03125 3.828125 -0.03125 4.171875 0 L 4.171875 -0.3125 L 3.859375 -0.3125 C 2.953125 -0.3125 2.9375 -0.421875 2.9375 -0.78125 Z M 2.9375 -6.375 "
           id="path3616" />
      </symbol>
      <symbol
         overflow="visible"
         id="symbol5008">
        <path
           style="stroke:none;"
           d="M 1.265625 -0.765625 L 2.328125 -1.796875 C 3.875 -3.171875 4.46875 -3.703125 4.46875 -4.703125 C 4.46875 -5.84375 3.578125 -6.640625 2.359375 -6.640625 C 1.234375 -6.640625 0.5 -5.71875 0.5 -4.828125 C 0.5 -4.28125 1 -4.28125 1.03125 -4.28125 C 1.203125 -4.28125 1.546875 -4.390625 1.546875 -4.8125 C 1.546875 -5.0625 1.359375 -5.328125 1.015625 -5.328125 C 0.9375 -5.328125 0.921875 -5.328125 0.890625 -5.3125 C 1.109375 -5.96875 1.65625 -6.328125 2.234375 -6.328125 C 3.140625 -6.328125 3.5625 -5.515625 3.5625 -4.703125 C 3.5625 -3.90625 3.078125 -3.125 2.515625 -2.5 L 0.609375 -0.375 C 0.5 -0.265625 0.5 -0.234375 0.5 0 L 4.203125 0 L 4.46875 -1.734375 L 4.234375 -1.734375 C 4.171875 -1.4375 4.109375 -1 4 -0.84375 C 3.9375 -0.765625 3.28125 -0.765625 3.0625 -0.765625 Z M 1.265625 -0.765625 "
           id="path9860" />
      </symbol>
      <symbol
         overflow="visible"
         id="symbol5556">
        <path
           style="stroke:none;"
           d="M 2.890625 -3.515625 C 3.703125 -3.78125 4.28125 -4.46875 4.28125 -5.265625 C 4.28125 -6.078125 3.40625 -6.640625 2.453125 -6.640625 C 1.453125 -6.640625 0.6875 -6.046875 0.6875 -5.28125 C 0.6875 -4.953125 0.90625 -4.765625 1.203125 -4.765625 C 1.5 -4.765625 1.703125 -4.984375 1.703125 -5.28125 C 1.703125 -5.765625 1.234375 -5.765625 1.09375 -5.765625 C 1.390625 -6.265625 2.046875 -6.390625 2.40625 -6.390625 C 2.828125 -6.390625 3.375 -6.171875 3.375 -5.28125 C 3.375 -5.15625 3.34375 -4.578125 3.09375 -4.140625 C 2.796875 -3.65625 2.453125 -3.625 2.203125 -3.625 C 2.125 -3.609375 1.890625 -3.59375 1.8125 -3.59375 C 1.734375 -3.578125 1.671875 -3.5625 1.671875 -3.46875 C 1.671875 -3.359375 1.734375 -3.359375 1.90625 -3.359375 L 2.34375 -3.359375 C 3.15625 -3.359375 3.53125 -2.6875 3.53125 -1.703125 C 3.53125 -0.34375 2.84375 -0.0625 2.40625 -0.0625 C 1.96875 -0.0625 1.21875 -0.234375 0.875 -0.8125 C 1.21875 -0.765625 1.53125 -0.984375 1.53125 -1.359375 C 1.53125 -1.71875 1.265625 -1.921875 0.984375 -1.921875 C 0.734375 -1.921875 0.421875 -1.78125 0.421875 -1.34375 C 0.421875 -0.4375 1.34375 0.21875 2.4375 0.21875 C 3.65625 0.21875 4.5625 -0.6875 4.5625 -1.703125 C 4.5625 -2.515625 3.921875 -3.296875 2.890625 -3.515625 Z M 2.890625 -3.515625 "
           id="path5708" />
      </symbol>
      <symbol
         overflow="visible"
         id="symbol8104">
        <path
           style="stroke:none;"
           d="M 2.9375 -1.640625 L 2.9375 -0.78125 C 2.9375 -0.421875 2.90625 -0.3125 2.171875 -0.3125 L 1.96875 -0.3125 L 1.96875 0 C 2.375 -0.03125 2.890625 -0.03125 3.3125 -0.03125 C 3.734375 -0.03125 4.25 -0.03125 4.671875 0 L 4.671875 -0.3125 L 4.453125 -0.3125 C 3.71875 -0.3125 3.703125 -0.421875 3.703125 -0.78125 L 3.703125 -1.640625 L 4.6875 -1.640625 L 4.6875 -1.953125 L 3.703125 -1.953125 L 3.703125 -6.484375 C 3.703125 -6.6875 3.703125 -6.75 3.53125 -6.75 C 3.453125 -6.75 3.421875 -6.75 3.34375 -6.625 L 0.28125 -1.953125 L 0.28125 -1.640625 Z M 2.984375 -1.953125 L 0.5625 -1.953125 L 2.984375 -5.671875 Z M 2.984375 -1.953125 "
           id="path1451" />
      </symbol>
      <symbol
         overflow="visible"
         id="symbol9815">
        <path
           style="stroke:none;"
           d="M 4.46875 -2 C 4.46875 -3.1875 3.65625 -4.1875 2.578125 -4.1875 C 2.109375 -4.1875 1.671875 -4.03125 1.3125 -3.671875 L 1.3125 -5.625 C 1.515625 -5.5625 1.84375 -5.5 2.15625 -5.5 C 3.390625 -5.5 4.09375 -6.40625 4.09375 -6.53125 C 4.09375 -6.59375 4.0625 -6.640625 3.984375 -6.640625 C 3.984375 -6.640625 3.953125 -6.640625 3.90625 -6.609375 C 3.703125 -6.515625 3.21875 -6.3125 2.546875 -6.3125 C 2.15625 -6.3125 1.6875 -6.390625 1.21875 -6.59375 C 1.140625 -6.625 1.125 -6.625 1.109375 -6.625 C 1 -6.625 1 -6.546875 1 -6.390625 L 1 -3.4375 C 1 -3.265625 1 -3.1875 1.140625 -3.1875 C 1.21875 -3.1875 1.234375 -3.203125 1.28125 -3.265625 C 1.390625 -3.421875 1.75 -3.96875 2.5625 -3.96875 C 3.078125 -3.96875 3.328125 -3.515625 3.40625 -3.328125 C 3.5625 -2.953125 3.59375 -2.578125 3.59375 -2.078125 C 3.59375 -1.71875 3.59375 -1.125 3.34375 -0.703125 C 3.109375 -0.3125 2.734375 -0.0625 2.28125 -0.0625 C 1.5625 -0.0625 0.984375 -0.59375 0.8125 -1.171875 C 0.84375 -1.171875 0.875 -1.15625 0.984375 -1.15625 C 1.3125 -1.15625 1.484375 -1.40625 1.484375 -1.640625 C 1.484375 -1.890625 1.3125 -2.140625 0.984375 -2.140625 C 0.84375 -2.140625 0.5 -2.0625 0.5 -1.609375 C 0.5 -0.75 1.1875 0.21875 2.296875 0.21875 C 3.453125 0.21875 4.46875 -0.734375 4.46875 -2 Z M 4.46875 -2 "
           id="path1620" />
      </symbol>
      <symbol
         overflow="visible"
         id="symbol250">
        <path
           style="stroke:none;"
           d="M 1.3125 -3.265625 L 1.3125 -3.515625 C 1.3125 -6.03125 2.546875 -6.390625 3.0625 -6.390625 C 3.296875 -6.390625 3.71875 -6.328125 3.9375 -5.984375 C 3.78125 -5.984375 3.390625 -5.984375 3.390625 -5.546875 C 3.390625 -5.234375 3.625 -5.078125 3.84375 -5.078125 C 4 -5.078125 4.3125 -5.171875 4.3125 -5.5625 C 4.3125 -6.15625 3.875 -6.640625 3.046875 -6.640625 C 1.765625 -6.640625 0.421875 -5.359375 0.421875 -3.15625 C 0.421875 -0.484375 1.578125 0.21875 2.5 0.21875 C 3.609375 0.21875 4.5625 -0.71875 4.5625 -2.03125 C 4.5625 -3.296875 3.671875 -4.25 2.5625 -4.25 C 1.890625 -4.25 1.515625 -3.75 1.3125 -3.265625 Z M 2.5 -0.0625 C 1.875 -0.0625 1.578125 -0.65625 1.515625 -0.8125 C 1.328125 -1.28125 1.328125 -2.078125 1.328125 -2.25 C 1.328125 -3.03125 1.65625 -4.03125 2.546875 -4.03125 C 2.71875 -4.03125 3.171875 -4.03125 3.484375 -3.40625 C 3.65625 -3.046875 3.65625 -2.53125 3.65625 -2.046875 C 3.65625 -1.5625 3.65625 -1.0625 3.484375 -0.703125 C 3.1875 -0.109375 2.734375 -0.0625 2.5 -0.0625 Z M 2.5 -0.0625 "
           id="path7984" />
      </symbol>
    </g>
    <g
       id="g3864">
      <symbol
         overflow="visible"
         id="symbol3128">
        <path
           style="stroke:none;"
           d=""
           id="path2064" />
      </symbol>
      <symbol
         overflow="visible"
         id="symbol6939">
        <path
           style="stroke:none;"
           d="M 6.1875 -5.828125 C 6.328125 -6.203125 6.59375 -6.484375 7.28125 -6.5 L 7.28125 -6.8125 C 6.96875 -6.78125 6.5625 -6.78125 6.3125 -6.78125 C 6.015625 -6.78125 5.4375 -6.796875 5.171875 -6.8125 L 5.171875 -6.5 C 5.6875 -6.484375 5.90625 -6.234375 5.90625 -6 C 5.90625 -5.921875 5.875 -5.859375 5.859375 -5.796875 L 4.03125 -1 L 2.125 -6.03125 C 2.0625 -6.171875 2.0625 -6.1875 2.0625 -6.203125 C 2.0625 -6.5 2.625 -6.5 2.875 -6.5 L 2.875 -6.8125 C 2.515625 -6.78125 1.828125 -6.78125 1.453125 -6.78125 C 0.984375 -6.78125 0.546875 -6.796875 0.1875 -6.8125 L 0.1875 -6.5 C 0.84375 -6.5 1.03125 -6.5 1.171875 -6.125 L 3.484375 0 C 3.546875 0.1875 3.59375 0.21875 3.734375 0.21875 C 3.890625 0.21875 3.921875 0.171875 3.96875 0.03125 Z M 6.1875 -5.828125 "
           id="path6667" />
      </symbol>
      <symbol
         overflow="visible"
         id="symbol5924">
        <path
           style="stroke:none;"
           d="M 3.734375 -6.296875 C 3.828125 -6.375 3.90625 -6.484375 3.90625 -6.59375 C 3.90625 -6.78125 3.734375 -6.953125 3.546875 -6.953125 C 3.40625 -6.953125 3.296875 -6.84375 3.25 -6.78125 L 2.046875 -5.265625 L 2.21875 -5.078125 Z M 3.734375 -6.296875 "
           id="path6529" />
      </symbol>
      <symbol
         overflow="visible"
         id="symbol3437">
        <path
           style="stroke:none;"
           d="M 1.109375 -2.515625 C 1.171875 -4 2.015625 -4.25 2.359375 -4.25 C 3.375 -4.25 3.484375 -2.90625 3.484375 -2.515625 Z M 1.109375 -2.296875 L 3.890625 -2.296875 C 4.109375 -2.296875 4.140625 -2.296875 4.140625 -2.515625 C 4.140625 -3.5 3.59375 -4.46875 2.359375 -4.46875 C 1.203125 -4.46875 0.28125 -3.4375 0.28125 -2.1875 C 0.28125 -0.859375 1.328125 0.109375 2.46875 0.109375 C 3.6875 0.109375 4.140625 -1 4.140625 -1.1875 C 4.140625 -1.28125 4.0625 -1.3125 4 -1.3125 C 3.921875 -1.3125 3.890625 -1.25 3.875 -1.171875 C 3.53125 -0.140625 2.625 -0.140625 2.53125 -0.140625 C 2.03125 -0.140625 1.640625 -0.4375 1.40625 -0.8125 C 1.109375 -1.28125 1.109375 -1.9375 1.109375 -2.296875 Z M 1.109375 -2.296875 "
           id="path8985" />
      </symbol>
      <symbol
         overflow="visible"
         id="symbol2215">
        <path
           style="stroke:none;"
           d="M 1.671875 -3.3125 L 1.671875 -4.40625 L 0.28125 -4.296875 L 0.28125 -3.984375 C 0.984375 -3.984375 1.0625 -3.921875 1.0625 -3.421875 L 1.0625 -0.75 C 1.0625 -0.3125 0.953125 -0.3125 0.28125 -0.3125 L 0.28125 0 C 0.671875 -0.015625 1.140625 -0.03125 1.421875 -0.03125 C 1.8125 -0.03125 2.28125 -0.03125 2.6875 0 L 2.6875 -0.3125 L 2.46875 -0.3125 C 1.734375 -0.3125 1.71875 -0.421875 1.71875 -0.78125 L 1.71875 -2.3125 C 1.71875 -3.296875 2.140625 -4.1875 2.890625 -4.1875 C 2.953125 -4.1875 2.984375 -4.1875 3 -4.171875 C 2.96875 -4.171875 2.765625 -4.046875 2.765625 -3.78125 C 2.765625 -3.515625 2.984375 -3.359375 3.203125 -3.359375 C 3.375 -3.359375 3.625 -3.484375 3.625 -3.796875 C 3.625 -4.109375 3.3125 -4.40625 2.890625 -4.40625 C 2.15625 -4.40625 1.796875 -3.734375 1.671875 -3.3125 Z M 1.671875 -3.3125 "
           id="path2054" />
      </symbol>
      <symbol
         overflow="visible"
         id="symbol2574">
        <path
           style="stroke:none;"
           d="M 1.71875 -3.984375 L 3.15625 -3.984375 L 3.15625 -4.296875 L 1.71875 -4.296875 L 1.71875 -6.125 L 1.46875 -6.125 C 1.46875 -5.3125 1.171875 -4.25 0.1875 -4.203125 L 0.1875 -3.984375 L 1.03125 -3.984375 L 1.03125 -1.234375 C 1.03125 -0.015625 1.96875 0.109375 2.328125 0.109375 C 3.03125 0.109375 3.3125 -0.59375 3.3125 -1.234375 L 3.3125 -1.796875 L 3.0625 -1.796875 L 3.0625 -1.25 C 3.0625 -0.515625 2.765625 -0.140625 2.390625 -0.140625 C 1.71875 -0.140625 1.71875 -1.046875 1.71875 -1.21875 Z M 1.71875 -3.984375 "
           id="path2183" />
      </symbol>
      <symbol
         overflow="visible"
         id="symbol2485">
        <path
           style="stroke:none;"
           d="M 1.765625 -4.40625 L 0.375 -4.296875 L 0.375 -3.984375 C 1.015625 -3.984375 1.109375 -3.921875 1.109375 -3.4375 L 1.109375 -0.75 C 1.109375 -0.3125 1 -0.3125 0.328125 -0.3125 L 0.328125 0 C 0.640625 -0.015625 1.1875 -0.03125 1.421875 -0.03125 C 1.78125 -0.03125 2.125 -0.015625 2.46875 0 L 2.46875 -0.3125 C 1.796875 -0.3125 1.765625 -0.359375 1.765625 -0.75 Z M 1.796875 -6.140625 C 1.796875 -6.453125 1.5625 -6.671875 1.28125 -6.671875 C 0.96875 -6.671875 0.75 -6.40625 0.75 -6.140625 C 0.75 -5.875 0.96875 -5.609375 1.28125 -5.609375 C 1.5625 -5.609375 1.796875 -5.828125 1.796875 -6.140625 Z M 1.796875 -6.140625 "
           id="path7729" />
      </symbol>
      <symbol
         overflow="visible"
         id="symbol4347">
        <path
           style="stroke:none;"
           d="M 1.171875 -2.171875 C 1.171875 -3.796875 1.984375 -4.21875 2.515625 -4.21875 C 2.609375 -4.21875 3.234375 -4.203125 3.578125 -3.84375 C 3.171875 -3.8125 3.109375 -3.515625 3.109375 -3.390625 C 3.109375 -3.125 3.296875 -2.9375 3.5625 -2.9375 C 3.828125 -2.9375 4.03125 -3.09375 4.03125 -3.40625 C 4.03125 -4.078125 3.265625 -4.46875 2.5 -4.46875 C 1.25 -4.46875 0.34375 -3.390625 0.34375 -2.15625 C 0.34375 -0.875 1.328125 0.109375 2.484375 0.109375 C 3.8125 0.109375 4.140625 -1.09375 4.140625 -1.1875 C 4.140625 -1.28125 4.03125 -1.28125 4 -1.28125 C 3.921875 -1.28125 3.890625 -1.25 3.875 -1.1875 C 3.59375 -0.265625 2.9375 -0.140625 2.578125 -0.140625 C 2.046875 -0.140625 1.171875 -0.5625 1.171875 -2.171875 Z M 1.171875 -2.171875 "
           id="path285" />
      </symbol>
    </g>
    <g
       id="g81">
      <symbol
         overflow="visible"
         id="symbol2273">
        <path
           style="stroke:none;"
           d=""
           id="path860" />
      </symbol>
      <symbol
         overflow="visible"
         id="symbol729">
        <path
           style="stroke:none;"
           d="M 3.96875 -6.9375 C 3.921875 -7.0625 3.890625 -7.140625 3.734375 -7.140625 C 3.578125 -7.140625 3.546875 -7.078125 3.5 -6.9375 L 1.4375 -0.984375 C 1.25 -0.46875 0.859375 -0.3125 0.3125 -0.3125 L 0.3125 0 C 0.546875 -0.015625 0.984375 -0.03125 1.328125 -0.03125 C 1.640625 -0.03125 2.15625 -0.015625 2.484375 0 L 2.484375 -0.3125 C 1.984375 -0.3125 1.734375 -0.5625 1.734375 -0.8125 C 1.734375 -0.84375 1.75 -0.953125 1.75 -0.96875 L 2.21875 -2.265625 L 4.671875 -2.265625 L 5.203125 -0.75 C 5.21875 -0.703125 5.234375 -0.640625 5.234375 -0.609375 C 5.234375 -0.3125 4.671875 -0.3125 4.40625 -0.3125 L 4.40625 0 C 4.765625 -0.03125 5.46875 -0.03125 5.84375 -0.03125 C 6.265625 -0.03125 6.734375 -0.015625 7.140625 0 L 7.140625 -0.3125 L 6.96875 -0.3125 C 6.375 -0.3125 6.234375 -0.375 6.125 -0.703125 Z M 3.4375 -5.828125 L 4.5625 -2.578125 L 2.328125 -2.578125 Z M 3.4375 -5.828125 "
           id="path1253" />
      </symbol>
      <symbol
         overflow="visible"
         id="symbol8749">
        <path
           style="stroke:none;"
           d="M 1.671875 -3.3125 L 1.671875 -4.40625 L 0.28125 -4.296875 L 0.28125 -3.984375 C 0.984375 -3.984375 1.0625 -3.921875 1.0625 -3.421875 L 1.0625 -0.75 C 1.0625 -0.3125 0.953125 -0.3125 0.28125 -0.3125 L 0.28125 0 C 0.671875 -0.015625 1.140625 -0.03125 1.421875 -0.03125 C 1.8125 -0.03125 2.28125 -0.03125 2.6875 0 L 2.6875 -0.3125 L 2.46875 -0.3125 C 1.734375 -0.3125 1.71875 -0.421875 1.71875 -0.78125 L 1.71875 -2.3125 C 1.71875 -3.296875 2.140625 -4.1875 2.890625 -4.1875 C 2.953125 -4.1875 2.984375 -4.1875 3 -4.171875 C 2.96875 -4.171875 2.765625 -4.046875 2.765625 -3.78125 C 2.765625 -3.515625 2.984375 -3.359375 3.203125 -3.359375 C 3.375 -3.359375 3.625 -3.484375 3.625 -3.796875 C 3.625 -4.109375 3.3125 -4.40625 2.890625 -4.40625 C 2.15625 -4.40625 1.796875 -3.734375 1.671875 -3.3125 Z M 1.671875 -3.3125 "
           id="path5469" />
      </symbol>
      <symbol
         overflow="visible"
         id="symbol6126">
        <path
           style="stroke:none;"
           d="M 1.109375 -2.515625 C 1.171875 -4 2.015625 -4.25 2.359375 -4.25 C 3.375 -4.25 3.484375 -2.90625 3.484375 -2.515625 Z M 1.109375 -2.296875 L 3.890625 -2.296875 C 4.109375 -2.296875 4.140625 -2.296875 4.140625 -2.515625 C 4.140625 -3.5 3.59375 -4.46875 2.359375 -4.46875 C 1.203125 -4.46875 0.28125 -3.4375 0.28125 -2.1875 C 0.28125 -0.859375 1.328125 0.109375 2.46875 0.109375 C 3.6875 0.109375 4.140625 -1 4.140625 -1.1875 C 4.140625 -1.28125 4.0625 -1.3125 4 -1.3125 C 3.921875 -1.3125 3.890625 -1.25 3.875 -1.171875 C 3.53125 -0.140625 2.625 -0.140625 2.53125 -0.140625 C 2.03125 -0.140625 1.640625 -0.4375 1.40625 -0.8125 C 1.109375 -1.28125 1.109375 -1.9375 1.109375 -2.296875 Z M 1.109375 -2.296875 "
           id="path1748" />
      </symbol>
      <symbol
         overflow="visible"
         id="symbol6897">
        <path
           style="stroke:none;"
           d="M 2.078125 -1.9375 C 2.296875 -1.890625 3.109375 -1.734375 3.109375 -1.015625 C 3.109375 -0.515625 2.765625 -0.109375 1.984375 -0.109375 C 1.140625 -0.109375 0.78125 -0.671875 0.59375 -1.53125 C 0.5625 -1.65625 0.5625 -1.6875 0.453125 -1.6875 C 0.328125 -1.6875 0.328125 -1.625 0.328125 -1.453125 L 0.328125 -0.125 C 0.328125 0.046875 0.328125 0.109375 0.4375 0.109375 C 0.484375 0.109375 0.5 0.09375 0.6875 -0.09375 C 0.703125 -0.109375 0.703125 -0.125 0.890625 -0.3125 C 1.328125 0.09375 1.78125 0.109375 1.984375 0.109375 C 3.125 0.109375 3.59375 -0.5625 3.59375 -1.28125 C 3.59375 -1.796875 3.296875 -2.109375 3.171875 -2.21875 C 2.84375 -2.546875 2.453125 -2.625 2.03125 -2.703125 C 1.46875 -2.8125 0.8125 -2.9375 0.8125 -3.515625 C 0.8125 -3.875 1.0625 -4.28125 1.921875 -4.28125 C 3.015625 -4.28125 3.078125 -3.375 3.09375 -3.078125 C 3.09375 -2.984375 3.1875 -2.984375 3.203125 -2.984375 C 3.34375 -2.984375 3.34375 -3.03125 3.34375 -3.21875 L 3.34375 -4.234375 C 3.34375 -4.390625 3.34375 -4.46875 3.234375 -4.46875 C 3.1875 -4.46875 3.15625 -4.46875 3.03125 -4.34375 C 3 -4.3125 2.90625 -4.21875 2.859375 -4.1875 C 2.484375 -4.46875 2.078125 -4.46875 1.921875 -4.46875 C 0.703125 -4.46875 0.328125 -3.796875 0.328125 -3.234375 C 0.328125 -2.890625 0.484375 -2.609375 0.75 -2.390625 C 1.078125 -2.140625 1.359375 -2.078125 2.078125 -1.9375 Z M 2.078125 -1.9375 "
           id="path2920" />
      </symbol>
      <symbol
         overflow="visible"
         id="symbol6645">
        <path
           style="stroke:none;"
           d="M 1.71875 -3.984375 L 3.15625 -3.984375 L 3.15625 -4.296875 L 1.71875 -4.296875 L 1.71875 -6.125 L 1.46875 -6.125 C 1.46875 -5.3125 1.171875 -4.25 0.1875 -4.203125 L 0.1875 -3.984375 L 1.03125 -3.984375 L 1.03125 -1.234375 C 1.03125 -0.015625 1.96875 0.109375 2.328125 0.109375 C 3.03125 0.109375 3.3125 -0.59375 3.3125 -1.234375 L 3.3125 -1.796875 L 3.0625 -1.796875 L 3.0625 -1.25 C 3.0625 -0.515625 2.765625 -0.140625 2.390625 -0.140625 C 1.71875 -0.140625 1.71875 -1.046875 1.71875 -1.21875 Z M 1.71875 -3.984375 "
           id="path2630" />
      </symbol>
      <symbol
         overflow="visible"
         id="symbol5087">
        <path
           style="stroke:none;"
           d="M 3.3125 -0.75 C 3.359375 -0.359375 3.625 0.0625 4.09375 0.0625 C 4.3125 0.0625 4.921875 -0.078125 4.921875 -0.890625 L 4.921875 -1.453125 L 4.671875 -1.453125 L 4.671875 -0.890625 C 4.671875 -0.3125 4.421875 -0.25 4.3125 -0.25 C 3.984375 -0.25 3.9375 -0.703125 3.9375 -0.75 L 3.9375 -2.734375 C 3.9375 -3.15625 3.9375 -3.546875 3.578125 -3.921875 C 3.1875 -4.3125 2.6875 -4.46875 2.21875 -4.46875 C 1.390625 -4.46875 0.703125 -4 0.703125 -3.34375 C 0.703125 -3.046875 0.90625 -2.875 1.171875 -2.875 C 1.453125 -2.875 1.625 -3.078125 1.625 -3.328125 C 1.625 -3.453125 1.578125 -3.78125 1.109375 -3.78125 C 1.390625 -4.140625 1.875 -4.25 2.1875 -4.25 C 2.6875 -4.25 3.25 -3.859375 3.25 -2.96875 L 3.25 -2.609375 C 2.734375 -2.578125 2.046875 -2.546875 1.421875 -2.25 C 0.671875 -1.90625 0.421875 -1.390625 0.421875 -0.953125 C 0.421875 -0.140625 1.390625 0.109375 2.015625 0.109375 C 2.671875 0.109375 3.125 -0.296875 3.3125 -0.75 Z M 3.25 -2.390625 L 3.25 -1.390625 C 3.25 -0.453125 2.53125 -0.109375 2.078125 -0.109375 C 1.59375 -0.109375 1.1875 -0.453125 1.1875 -0.953125 C 1.1875 -1.5 1.609375 -2.328125 3.25 -2.390625 Z M 3.25 -2.390625 "
           id="path5966" />
      </symbol>
    </g>
  </defs>
  <g
     inkscape:label="Layer 1"
     inkscape:groupmode="layer"
     id="layer1">
    <g
       id="g1272">
      <path
         style="fill:none;stroke:#0072b2;stroke-width:2;stroke-linecap:butt;stroke-linejoin:miter;stroke-miterlimit:4;stroke-dasharray:none;stroke-opacity:1"
         d="M -7.0758705,128.18252 C 25.531133,113.71645 58.138007,99.250446 90.744764,84.78449"
         id="path1126"
         inkscape:path-effect="#path-effect1128"
         inkscape:original-d="M -7.0758705,128.18252 C 25.531273,113.71677 58.138149,99.250766 90.744764,84.78449" />
      <path
         style="fill:none;stroke:#0072b2;stroke-width:2;stroke-linecap:butt;stroke-linejoin:miter;stroke-miterlimit:4;stroke-dasharray:none;stroke-opacity:1"
         d="m 90.744764,84.78449 c 27.222686,25.4233 54.445096,50.84635 81.667236,76.26915"
         id="path1130"
         inkscape:path-effect="#path-effect1132"
         inkscape:original-d="M 90.744764,84.78449 C 117.96744,110.2078 145.18985,135.63085 172.412,161.05364"
         sodipodi:nodetypes="cc" />
      <path
         style="fill:none;stroke:#0072b2;stroke-width:2;stroke-linecap:butt;stroke-linejoin:miter;stroke-miterlimit:4;stroke-dasharray:none;stroke-opacity:1"
         d="m 172.412,161.05364 c -30.88292,1.99735 -61.76609,3.99471 -92.649505,5.99209"
         id="path1134"
         inkscape:path-effect="#path-effect1136"
         inkscape:original-d="m 172.412,161.05364 c -30.8829,1.99763 -61.76607,3.99499 -92.649505,5.99209"
         sodipodi:nodetypes="cc" />
      <path
         style="fill:none;stroke:#0072b2;stroke-width:2;stroke-linecap:butt;stroke-linejoin:miter;stroke-miterlimit:4;stroke-dasharray:none;stroke-opacity:1"
         d="M 79.762495,167.04573 C 83.42322,139.62555 87.083979,112.20512 90.744764,84.78449"
         id="path1138"
         inkscape:path-effect="#path-effect1140"
         inkscape:original-d="m 79.762495,167.04573 c 3.66102,-27.42014 7.321778,-54.84057 10.982269,-82.26124"
         sodipodi:nodetypes="cc" />
      <path
         style="fill:none;stroke:#0072b2;stroke-width:2;stroke-linecap:butt;stroke-linejoin:miter;stroke-miterlimit:4;stroke-dasharray:none;stroke-opacity:1"
         d="M 106.33571,242.29409 C 97.478085,217.21162 88.620345,192.12883 79.762495,167.04573"
         id="path1142"
         inkscape:path-effect="#path-effect1144"
         inkscape:original-d="M 106.33571,242.29409 C 97.478238,217.21157 88.620498,192.12878 79.762495,167.04573" />
      <path
         style="fill:none;stroke:#0072b2;stroke-width:2;stroke-linecap:butt;stroke-linejoin:miter;stroke-miterlimit:4;stroke-dasharray:none;stroke-opacity:1"
         d="M 9.0649507,226.52574 C 32.630827,206.69905 56.196674,186.87238 79.762495,167.04573"
         id="path1146"
         inkscape:path-effect="#path-effect1148"
         inkscape:original-d="M 9.0649507,226.52574 C 32.631065,206.69933 56.196912,186.87266 79.762495,167.04573" />
      <path
         style="fill:none;stroke:#0072b2;stroke-width:2;stroke-linecap:butt;stroke-linejoin:miter;stroke-miterlimit:4;stroke-dasharray:none;stroke-opacity:1"
         d="M -7.0758705,128.18252 C -1.6955472,160.9639 3.684726,193.74497 9.0649507,226.52574"
         id="path1150"
         inkscape:path-effect="#path-effect1152"
         inkscape:original-d="m -7.0758705,128.18252 c 5.3805383,32.78134 10.760812,65.56241 16.1408212,98.34322" />
      <circle
         style="fill:#000000;stroke-width:1;stroke-miterlimit:4;stroke-dasharray:none"
         id="path932"
         cx="-7.020474"
         cy="128.30177"
         r="6" />
      <circle
         style="fill:#000000;stroke-width:1;stroke-miterlimit:4;stroke-dasharray:none"
         id="path932-3"
         cx="90.267975"
         cy="85.281242"
         r="6" />
      <circle
         style="fill:#000000;stroke-width:1;stroke-miterlimit:4;stroke-dasharray:none"
         id="path932-6"
         cx="172.13097"
         cy="161.0473"
         r="6" />
      <circle
         style="fill:#000000;stroke-width:1;stroke-miterlimit:4;stroke-dasharray:none"
         id="path932-7"
         cx="79.637596"
         cy="166.68434"
         r="6" />
      <circle
         style="fill:#000000;stroke-width:1;stroke-miterlimit:4;stroke-dasharray:none"
         id="path932-5"
         cx="106.77328"
         cy="242.2458"
         r="6" />
      <circle
         style="fill:#000000;stroke-width:1;stroke-miterlimit:4;stroke-dasharray:none"
         id="path932-35"
         cx="9.0091438"
         cy="226.22633"
         r="6" />
      <g
         style="fill:#000000;fill-opacity:1;stroke-width:0.500004;stroke-miterlimit:4;stroke-dasharray:none"
         id="g1063"
         transform="matrix(1.9999859,0,0,1.9999859,-206.55402,-40.818014)">
        <use
           xlink:href="#symbol7944"
           x="91.925003"
           y="81.962997"
           id="use5001"
           width="100%"
           height="100%"
           style="stroke-width:0.500004;stroke-miterlimit:4;stroke-dasharray:none" />
      </g>
      <g
         style="fill:#000000;fill-opacity:1;stroke-width:0.500004;stroke-miterlimit:4;stroke-dasharray:none"
         id="g3964"
         transform="matrix(1.9999859,0,0,1.9999859,-115.14702,-89.824061)">
        <use
           xlink:href="#symbol5008"
           x="100.22385"
           y="81.962997"
           id="use6372"
           width="100%"
           height="100%"
           style="stroke-width:0.500004;stroke-miterlimit:4;stroke-dasharray:none" />
      </g>
      <g
         style="fill:#000000;fill-opacity:1;stroke-width:0.500004;stroke-miterlimit:4;stroke-dasharray:none"
         id="g3354"
         transform="matrix(1.9999859,0,0,1.9999859,-159.07281,1.2647869)">
        <use
           xlink:href="#symbol5556"
           x="108.53265"
           y="81.962997"
           id="use8771"
           width="100%"
           height="100%"
           style="stroke-width:0.500004;stroke-miterlimit:4;stroke-dasharray:none" />
      </g>
      <g
         style="fill:#000000;fill-opacity:1;stroke-width:0.500004;stroke-miterlimit:4;stroke-dasharray:none"
         id="g5776"
         transform="matrix(1.9999859,0,0,1.9999859,-50.16512,-3.8968552)">
        <use
           xlink:href="#symbol8104"
           x="116.8315"
           y="81.962997"
           id="use2797"
           width="100%"
           height="100%"
           style="stroke-width:0.500004;stroke-miterlimit:4;stroke-dasharray:none" />
      </g>
      <g
         style="fill:#000000;fill-opacity:1;stroke-width:0.500004;stroke-miterlimit:4;stroke-dasharray:none"
         id="g5318"
         transform="matrix(1.9999859,0,0,1.9999859,-262.07357,77.167137)">
        <use
           xlink:href="#symbol9815"
           x="125.13035"
           y="81.962997"
           id="use8914"
           width="100%"
           height="100%"
           style="stroke-width:0.500004;stroke-miterlimit:4;stroke-dasharray:none" />
      </g>
      <g
         style="fill:#000000;fill-opacity:1;stroke-width:0.500004;stroke-miterlimit:4;stroke-dasharray:none"
         id="g4687"
         transform="matrix(1.9999859,0,0,1.9999859,-181.40205,78.167084)">
        <use
           xlink:href="#symbol250"
           x="133.43915"
           y="81.962997"
           id="use6882"
           width="100%"
           height="100%"
           style="stroke-width:0.500004;stroke-miterlimit:4;stroke-dasharray:none" />
      </g>
      <g
         inkscape:label=""
         transform="matrix(1.9999859,0,0,1.9999859,-14.947698,83.66905)"
         id="g1704"
         style="stroke-width:0.500004;stroke-miterlimit:4;stroke-dasharray:none">
        <g
           id="g8365"
           style="stroke-width:0.500004;stroke-miterlimit:4;stroke-dasharray:none">
          <g
             style="fill:#000000;fill-opacity:1;stroke-width:0.500004;stroke-miterlimit:4;stroke-dasharray:none"
             id="g8552">
            <use
               xlink:href="#symbol6939"
               x="91.925003"
               y="81.962997"
               id="use1898"
               width="100%"
               height="100%"
               style="stroke-width:0.500004;stroke-miterlimit:4;stroke-dasharray:none" />
          </g>
          <g
             style="fill:#000000;fill-opacity:1;stroke-width:0.500004;stroke-miterlimit:4;stroke-dasharray:none"
             id="g6001">
            <use
               xlink:href="#symbol5924"
               x="99.117996"
               y="81.962997"
               id="use4681"
               width="100%"
               height="100%"
               style="stroke-width:0.500004;stroke-miterlimit:4;stroke-dasharray:none" />
          </g>
          <g
             style="fill:#000000;fill-opacity:1;stroke-width:0.500004;stroke-miterlimit:4;stroke-dasharray:none"
             id="g9837">
            <use
               xlink:href="#symbol3437"
               x="99.39695"
               y="81.962997"
               id="use3816"
               width="100%"
               height="100%"
               style="stroke-width:0.500004;stroke-miterlimit:4;stroke-dasharray:none" />
            <use
               xlink:href="#symbol2215"
               x="103.82433"
               y="81.962997"
               id="use7348"
               width="100%"
               height="100%"
               style="stroke-width:0.500004;stroke-miterlimit:4;stroke-dasharray:none" />
            <use
               xlink:href="#symbol2574"
               x="107.72668"
               y="81.962997"
               id="use9328"
               width="100%"
               height="100%"
               style="stroke-width:0.500004;stroke-miterlimit:4;stroke-dasharray:none" />
            <use
               xlink:href="#symbol2485"
               x="111.60114"
               y="81.962997"
               id="use270"
               width="100%"
               height="100%"
               style="stroke-width:0.500004;stroke-miterlimit:4;stroke-dasharray:none" />
            <use
               xlink:href="#symbol4347"
               x="114.36874"
               y="81.962997"
               id="use6410"
               width="100%"
               height="100%"
               style="stroke-width:0.500004;stroke-miterlimit:4;stroke-dasharray:none" />
            <use
               xlink:href="#symbol3437"
               x="118.79613"
               y="81.962997"
               id="use8150"
               width="100%"
               height="100%"
               style="stroke-width:0.500004;stroke-miterlimit:4;stroke-dasharray:none" />
          </g>
        </g>
      </g>
      <g
         inkscape:label=""
         transform="matrix(1.9999859,0,0,1.9999859,-33.697881,-100.88949)"
         id="g1945"
         style="stroke-width:0.500004;stroke-miterlimit:4;stroke-dasharray:none">
        <g
           id="g2748"
           style="stroke-width:0.500004;stroke-miterlimit:4;stroke-dasharray:none">
          <g
             style="fill:#000000;fill-opacity:1;stroke-width:0.500004;stroke-miterlimit:4;stroke-dasharray:none"
             id="g3693">
            <use
               xlink:href="#symbol729"
               x="91.925003"
               y="81.962997"
               id="use8015"
               width="100%"
               height="100%"
               style="stroke-width:0.500004;stroke-miterlimit:4;stroke-dasharray:none" />
            <use
               xlink:href="#symbol8749"
               x="99.39695"
               y="81.962997"
               id="use7459"
               width="100%"
               height="100%"
               style="stroke-width:0.500004;stroke-miterlimit:4;stroke-dasharray:none" />
            <use
               xlink:href="#symbol6126"
               x="103.2993"
               y="81.962997"
               id="use6702"
               width="100%"
               height="100%"
               style="stroke-width:0.500004;stroke-miterlimit:4;stroke-dasharray:none" />
            <use
               xlink:href="#symbol6897"
               x="107.72668"
               y="81.962997"
               id="use4751"
               width="100%"
               height="100%"
               style="stroke-width:0.500004;stroke-miterlimit:4;stroke-dasharray:none" />
            <use
               xlink:href="#symbol6645"
               x="111.65593"
               y="81.962997"
               id="use9842"
               width="100%"
               height="100%"
               style="stroke-width:0.500004;stroke-miterlimit:4;stroke-dasharray:none" />
            <use
               xlink:href="#symbol5087"
               x="115.53038"
               y="81.962997"
               id="use9234"
               width="100%"
               height="100%"
               style="stroke-width:0.500004;stroke-miterlimit:4;stroke-dasharray:none" />
          </g>
        </g>
      </g>
      <path
         style="fill:none;stroke:#000000;stroke-width:1;stroke-linecap:butt;stroke-linejoin:miter;stroke-miterlimit:4;stroke-dasharray:none;stroke-opacity:1;marker-end:url(#Arrow1Lend)"
         d="m 198.61089,226.40207 c -6.93452,-17.79503 -13.86915,-35.59038 -20.80392,-53.38606"
         id="path2068"
         inkscape:path-effect="#path-effect2070"
         inkscape:original-d="m 198.61089,226.40207 c -6.93437,-17.79509 -13.86901,-35.59044 -20.80392,-53.38606" />
      <path
         style="fill:none;stroke:#000000;stroke-width:1;stroke-linecap:butt;stroke-linejoin:miter;stroke-miterlimit:4;stroke-dasharray:none;stroke-opacity:1;marker-end:url(#Arrow1Lend)"
         d="M 166.16895,74.346447 C 155.72656,88.374003 145.28419,102.40152 134.84186,116.429"
         id="path2349"
         inkscape:path-effect="#path-effect2351"
         inkscape:original-d="M 166.16895,74.346447 C 155.72686,88.374227 145.28449,102.40174 134.84186,116.429" />
    </g>
  </g>
</svg>
